<svg width="140" height="40" viewBox="0 0 280 79" fill="none" xmlns="http://www.w3.org/2000/svg">
<g clip-path="url(#clip0)">
<path d="M62.2713 78.9994C60.7024 78.9994 59.2303 78.3319 58.1241 77.1167L42.9401 60.4991C37.1188 62.2207 31.02 62.2207 25.1987 60.4991L10.0147 77.1167C8.90852 78.3319 7.43218 78.9994 5.86751 78.9994C4.30284 78.9994 2.8265 78.3319 1.71609 77.1167C0.609884 75.9014 0 74.2903 0 72.5733C0 70.8563 0.609884 69.2452 1.72029 68.0346L13.9979 54.5979C12.6183 53.4885 11.3186 52.264 10.1073 50.9429C3.71819 43.9461 0.197687 34.6338 0.197687 24.7139C0.197687 16.6675 2.62461 8.72703 7.0326 2.3516C7.97897 0.984456 9.42166 0.128261 10.9905 0.0131817C12.572 -0.106501 14.1241 0.528739 15.2471 1.75779C17.1651 3.85685 17.3838 7.22178 15.756 9.57862C8.55941 19.9956 9.80021 34.4957 18.6414 43.3016C19.6383 44.2913 20.7192 45.1889 21.8675 45.9761L30.3891 36.65C32.4164 34.4313 35.7182 34.4313 37.7455 36.65L46.2671 45.9761C47.4196 45.1889 48.5047 44.2867 49.4974 43.297C58.3344 34.4865 59.5752 19.991 52.3785 9.57862C50.7508 7.22178 50.9653 3.85685 52.8875 1.75779C54.0105 0.528739 55.5668 -0.111105 57.1441 0.0131817C58.7129 0.132865 60.1556 0.984456 61.102 2.3516C71.2471 17.0266 69.9264 37.9159 58.0273 50.9383C56.8202 52.2594 55.5163 53.4839 54.1367 54.5932L66.4143 68.03C68.7024 70.5341 68.7024 74.6079 66.4143 77.1121C65.3165 78.3273 63.8402 78.9994 62.2713 78.9994ZM11.3691 3.33669C11.3144 3.33669 11.2555 3.33669 11.2008 3.34129C10.4984 3.39193 9.88433 3.75558 9.46372 4.3632C5.45531 10.1632 3.24711 17.3902 3.24711 24.7139C3.24711 33.7408 6.44795 42.2153 12.265 48.5815C13.7624 50.2202 15.4238 51.6978 17.1987 52.9683L18.7676 54.0915L3.87382 70.3914C2.77603 71.5928 2.77603 73.5538 3.87382 74.7552C4.40799 75.3398 5.11462 75.6575 5.86751 75.6575C6.6204 75.6575 7.32702 75.3352 7.8612 74.7552L24.3197 56.7429L25.1903 57.0283C30.9989 58.9295 37.1399 58.9295 42.9485 57.0283L43.8191 56.7429L60.2776 74.7552C61.3754 75.9567 63.1672 75.9567 64.265 74.7552C65.3628 73.5538 65.3628 71.5928 64.265 70.3914L49.3712 54.0915L50.9401 52.9683C52.715 51.6978 54.3764 50.2202 55.8738 48.5815C66.7045 36.7283 67.9075 17.7217 58.6751 4.3678C58.2545 3.76018 57.6362 3.39653 56.938 3.34589C56.2313 3.29526 55.5457 3.57605 55.0452 4.11923C54.1956 5.04908 54.0946 6.5313 54.8139 7.57163C62.9653 19.3696 61.5647 35.7892 51.5542 45.7689C50.1073 47.2143 48.4963 48.4802 46.7718 49.5343L45.7666 50.1466L35.5962 39.0114C34.755 38.0908 33.388 38.0908 32.5468 39.0114L22.3764 50.1466L21.3712 49.5343C19.6467 48.4802 18.04 47.2143 16.5931 45.7735C6.57413 35.7938 5.1735 19.3696 13.3249 7.56702C14.0442 6.5313 13.9432 5.04447 13.0936 4.11463C12.6351 3.61748 12.0168 3.33669 11.3691 3.33669ZM34.0694 53.1248C33.1399 53.1248 32.2061 53.0696 31.285 52.9637L28.1136 52.5955L34.0694 46.0727L40.0252 52.5955L36.8538 52.9637C35.9327 53.0696 35.0032 53.1248 34.0694 53.1248Z" fill="#2E2C3E"/>
<path d="M95.9075 36.0707L106.999 52.8539H101.363L92.5048 39.4724L86.0274 45.9215V52.8493H81.4512V24.8159H86.0274V39.1548L89.7961 35.3894L93.1988 31.9831L100.337 24.8113H107.108L95.9075 36.0707Z" fill="#2B2B2B"/>
<path d="M113.144 32.3882V34.9936H129.615V40.0019H113.144V45.2909C113.144 46.6949 114.204 47.8549 115.487 47.8549H134.191V52.8632H115.487C111.68 52.8632 108.606 49.4568 108.606 45.2909V32.3882C108.606 28.2223 111.68 24.8159 115.487 24.8159H134.191V29.8242H115.487C114.208 29.8242 113.144 30.9842 113.144 32.3882Z" fill="#2B2B2B"/>
<path d="M137.813 52.8585H137.884L137.813 52.9367V52.8585ZM163.432 24.7744L153.514 38.8326L152.968 39.5921V52.8125H148.391V39.6796L147.769 38.8372L137.851 24.779H143.634L150.663 34.7541L157.691 24.779H163.432V24.7744ZM163.399 52.8585H163.437V52.9367L163.399 52.8585Z" fill="#2B2B2B"/>
<path d="M167.129 53.1393V48.131H171.706V53.1393H167.129Z" fill="#2B2B2B"/>
<path d="M179.571 38.8372C179.571 43.8041 183.268 47.8503 187.807 47.8503H200.618V52.8586H187.807C180.745 52.8586 174.995 46.5706 174.995 38.8372C174.995 31.1039 180.74 24.8159 187.807 24.8159H200.618V29.8242H187.807C183.268 29.8242 179.571 33.8704 179.571 38.8372Z" fill="#2B2B2B"/>
<path d="M227.407 38.8372C227.407 46.566 221.661 52.8586 214.595 52.8586C207.529 52.8586 201.783 46.5706 201.783 38.8372C201.783 31.1039 207.529 24.8159 214.595 24.8159C221.661 24.8159 227.407 31.1039 227.407 38.8372ZM222.835 38.8372C222.835 33.8704 219.138 29.8242 214.599 29.8242C210.061 29.8242 206.364 33.8704 206.364 38.8372C206.364 43.8041 210.061 47.8503 214.599 47.8503C219.138 47.8503 222.835 43.8041 222.835 38.8372Z" fill="#2B2B2B"/>
<path d="M250.869 47.9285L253.211 52.9367H248.088L245.746 47.9285L243.293 42.6808L243.184 42.4414C242.381 41.0007 240.951 40.0386 239.306 40.0386H234.73V52.9367H230.154V24.8987H246.33C248.231 24.8987 249.956 25.7411 251.197 27.1036C252.442 28.4662 253.211 30.3489 253.211 32.4295C253.211 35.4722 251.563 38.1191 249.186 39.3205C248.564 39.6427 247.903 39.8406 247.209 39.9235L250.869 47.9285ZM246.33 35.0303C246.658 35.0303 246.991 34.9521 247.281 34.7909C248.122 34.3905 248.673 33.4698 248.673 32.4663C248.673 31.5457 248.236 30.9058 247.979 30.6251C247.685 30.3028 247.138 29.9024 246.33 29.9024H234.726V35.0717L246.33 35.0303Z" fill="#2B2B2B"/>
<path d="M277.989 27.0623C279.234 28.4616 280.004 30.349 280.004 32.4296C280.004 35.4723 278.355 38.1191 275.979 39.3206C275.356 39.6428 274.7 39.8407 274.002 39.9236C273.931 39.9236 273.855 39.9236 273.783 39.9236V39.965H261.523V52.8632H256.946V24.8159H273.089C274.995 24.8159 276.715 25.6583 277.956 27.0208L277.989 27.0623ZM274.074 34.7128C274.915 34.3123 275.466 33.3917 275.466 32.3882C275.466 31.4675 275.028 30.8277 274.772 30.5469C274.477 30.2247 273.931 29.8242 273.123 29.8242H261.518V34.9936H273.123C273.451 34.9936 273.783 34.9153 274.074 34.7542V34.7128Z" fill="#2B2B2B"/>
</g>
<defs>
<clipPath id="clip0">
<rect width="280" height="79" fill="white"/>
</clipPath>
</defs>
</svg>
